<?xml version="1.0" encoding="UTF-8"?>
<svg id="_Слой_1" data-name="Слой_1" xmlns="http://www.w3.org/2000/svg" version="1.1" viewBox="0 0 800 200">
  <!-- Generator: Adobe Illustrator 29.4.0, SVG Export Plug-In . SVG Version: 2.1.0 Build 152)  -->
  <defs>
    <style>
      .st0 {
        fill: #f297a0;
      }
    </style>
  </defs>
  <path class="st0" d="M85.22,20.72c7.84,0,14.86,1.14,21.06,3.42,6.2,2.28,11.44,5.56,15.71,9.83,4.28,4.28,7.52,9.37,9.73,15.29,2.21,5.92,3.31,12.51,3.31,19.78,0,5.85-.96,12.05-2.89,18.6-1.92,6.56-4.95,12.61-9.09,18.17-4.14,5.56-9.44,10.19-15.93,13.9-6.49,3.71-14.29,5.63-23.41,5.77-6.27,0-12.05-.57-17.32-1.71v49.82h-27.79c-.29-24.8-.71-47.53-1.28-68.2-.29-8.84-.64-17.64-1.07-26.4-.43-8.77-.93-16.85-1.5-24.27-.57-7.41-1.25-13.82-2.03-19.24-.79-5.42-1.68-9.26-2.67-11.55,2.71-.28,6.27-.6,10.69-.96,4.42-.35,9.19-.71,14.32-1.07,5.13-.35,10.37-.64,15.71-.86s10.16-.32,14.43-.32ZM108.95,72.67c2.71-12.11,3.06-21.81,1.07-29.08-2-7.27-5.31-12.4-9.94-15.39-4.63-2.99-10.02-4.03-16.14-3.1-6.13.93-11.97,3.53-17.53,7.8v87.45c3.7,1.43,7.55,1.78,11.55,1.07,3.99-.71,7.84-2.89,11.55-6.52,3.7-3.63,7.23-8.87,10.58-15.71,3.35-6.84,6.31-15.68,8.87-26.51Z"/>
  <path class="st0" d="M206.53,63.27c11.23-.43,19.8,1.64,25.7,6.2,5.9,4.56,8.85,12.54,8.85,23.95v80.18h-27.58v-75.26c0-7.7-.75-13.79-2.25-18.28s-3.35-7.59-5.56-9.3c-2.21-1.71-4.7-2.17-7.48-1.39-2.78.79-5.42,2.6-7.91,5.45-2.5,2.85-4.74,6.63-6.73,11.33-2,4.7-3.35,10.05-4.06,16.04v71.41h-27.58c-.14-25.51-.5-48.75-1.07-69.7-.29-8.98-.64-17.85-1.07-26.62-.43-8.77-.93-16.82-1.5-24.16-.57-7.34-1.28-13.61-2.14-18.81-.86-5.2-1.78-8.66-2.78-10.37h36.13l-.07,62c2.27-7.13,5.55-12.61,9.81-16.46,4.26-3.85,10.02-5.91,17.28-6.2Z"/>
  <path class="st0" d="M349.9,119.07c.57,8.98-.21,17.07-2.35,24.27-2.14,7.2-5.34,13.33-9.62,18.39-4.28,5.06-9.48,8.91-15.61,11.55-6.13,2.64-12.9,3.88-20.31,3.74-6.56-.14-12.58-1.5-18.07-4.06-5.49-2.57-10.34-6.23-14.54-11.01-4.21-4.77-7.59-10.58-10.16-17.42-2.57-6.84-4.14-14.68-4.7-23.52-.57-8.26-.04-15.82,1.6-22.66,1.64-6.84,4.24-12.79,7.8-17.85,3.56-5.06,8.02-9.05,13.36-11.97,5.34-2.92,11.44-4.6,18.28-5.02,6.84-.43,13.4.39,19.67,2.46,6.27,2.07,11.87,5.42,16.78,10.05,4.92,4.63,8.98,10.51,12.19,17.64,3.21,7.13,5.09,15.61,5.67,25.44ZM282.98,120.99c1.85,10.12,3.92,18.64,6.2,25.55,2.28,6.92,4.7,12.44,7.27,16.57,2.57,4.14,5.2,6.99,7.91,8.55,2.71,1.57,5.35,2.06,7.91,1.5,3.71-.85,6.48-3.21,8.34-7.05,1.85-3.85,3.03-8.41,3.53-13.68.5-5.27.5-10.87,0-16.78-.5-5.91-1.32-11.44-2.46-16.57-2-9.69-4.06-17.89-6.2-24.59-2.14-6.7-4.38-12.11-6.73-16.25-2.35-4.13-4.74-7.09-7.16-8.87-2.43-1.78-4.78-2.6-7.06-2.46-2.71.29-5.17,1.46-7.38,3.53-2.21,2.07-3.89,5.24-5.02,9.51-1.14,4.28-1.71,9.8-1.71,16.57s.85,14.93,2.57,24.48Z"/>
  <path class="st0" d="M395.02,72.67v76.54c0,4.28.28,7.77.86,10.48.57,2.71,1.46,4.81,2.67,6.31,1.21,1.5,2.74,2.5,4.6,2.99,1.85.5,4.06.75,6.63.75v3.85c-2.85,1-6.2,1.82-10.05,2.46-3.85.64-7.34.96-10.48.96-2.43,0-4.92-.18-7.48-.53-2.57-.36-4.92-1.21-7.06-2.57-2.14-1.35-3.89-3.31-5.24-5.88-1.36-2.57-2.03-6.06-2.03-10.48,0-5.99-.07-13.11-.21-21.38-.14-8.26-.46-16.6-.96-25.01-.5-8.41-1.21-16.32-2.14-23.73-.93-7.41-2.1-13.26-3.53-17.53l-1.71-.21v-2.99c4.13,0,7.98-1.07,11.55-3.21,3.56-2.14,6.88-4.81,9.94-8.02,3.06-3.21,5.81-6.77,8.23-10.69,2.42-3.92,4.56-7.59,6.41-11.01v32.93h17.96v7.27l-17.96-1.28Z"/>
  <path class="st0" d="M470.91,161.83c-1.57,2.85-3.49,5.42-5.77,7.7-2,2-4.49,3.74-7.48,5.24-2.99,1.5-6.56,2.25-10.69,2.25-7.27,0-13.08-1.57-17.42-4.7-4.35-3.13-7.52-6.98-9.51-11.55-2-4.56-2.92-9.41-2.78-14.54.14-5.13,1.07-9.62,2.78-13.47,1.85-3.99,4.38-7.55,7.59-10.69,3.21-3.13,6.81-5.91,10.8-8.34,3.99-2.42,8.12-4.6,12.4-6.52,4.28-1.92,8.48-3.81,12.61-5.67,4.7-2.28,8.23-4.67,10.58-7.16,2.35-2.49,4.03-4.88,5.02-7.16,1-2.28,1.46-4.35,1.39-6.2-.07-1.85-.18-3.21-.32-4.06-.29-1.42-.82-2.81-1.6-4.17-.79-1.35-1.92-2.53-3.42-3.53-1.5-1-3.35-1.74-5.56-2.24-2.21-.5-4.88-.53-8.02-.11-3.71.43-7.16,1.5-10.37,3.21s-6.13,3.78-8.77,6.2c-2.64,2.43-5.06,4.99-7.27,7.7-2.21,2.71-4.24,5.27-6.09,7.7l-4.49-23.73c3.56-1,7.48-1.78,11.76-2.35,3.56-.57,7.7-1.07,12.4-1.5,4.7-.43,9.55-.71,14.54-.86,9.83-.14,17.82.64,23.95,2.35,6.13,1.71,9.62,4.92,10.48,9.62.57,3.56-.21,6.77-2.35,9.62-2.14,2.85-4.92,5.45-8.34,7.8-3.42,2.35-7.13,4.49-11.12,6.41-3.99,1.92-7.48,3.74-10.48,5.45-7.56,4.28-13.01,9.27-16.36,14.97-3.35,5.7-4.67,13.33-3.96,22.88.28,4.85,1.1,9.12,2.46,12.83,1.35,3.71,3.13,6.45,5.35,8.23,2.21,1.78,4.81,2.39,7.8,1.82,2.99-.57,6.2-2.78,9.62-6.63,2.14-1.85,4.13-4.45,5.99-7.8,1.85-3.35,3.56-7.06,5.13-11.12,1.57-4.06,3.1-8.23,4.6-12.51,1.5-4.28,2.92-8.3,4.28-12.08,1.35-3.78,2.74-7.02,4.17-9.73,1.42-2.71,2.85-4.56,4.28-5.56v21.81c0,6.84-.04,14.68-.11,23.52-.07,8.84-.11,18.39-.11,28.65h-27.58v-11.97Z"/>
  <path class="st0" d="M574.61,63.27c2.57,0,5.16.25,7.8.75,2.64.5,5.02,1.04,7.16,1.6,2.57.71,4.99,1.5,7.27,2.35-.14.71-.46,2.28-.96,4.7-.5,2.43-1.04,5.06-1.6,7.91-.71,3.28-1.5,6.92-2.35,10.9-2.99-3.42-6.13-6.06-9.41-7.91-3.28-1.85-6.52-3.1-9.73-3.74s-6.2-.78-8.98-.43c-2.78.36-5.1,1.11-6.95,2.25-3.71,2.28-6.41,5.67-8.12,10.16-1.71,4.49-2.78,9.23-3.21,14.22v67.56h-27.58c-.14-17.53-.5-33.64-1.07-48.32-.29-6.27-.64-12.51-1.07-18.71-.43-6.2-.93-11.97-1.5-17.32-.57-5.35-1.28-10.01-2.14-14-.86-3.99-1.78-6.84-2.78-8.55h36.13v24.16c2.14-8.12,5.59-14.75,10.37-19.88,4.77-5.13,11.01-7.7,18.71-7.7Z"/>
  <path class="st0" d="M689.21,106.46c-4.56,1.28-9.44,2.6-14.65,3.96-5.21,1.36-10.44,2.75-15.71,4.17-5.28,1.43-10.41,2.78-15.39,4.06-4.99,1.28-9.55,2.5-13.68,3.63,1.14,5.13,2.64,10.55,4.49,16.25,1.85,5.7,4.03,11.05,6.52,16.04,2.49,4.99,5.17,9.19,8.02,12.61,2.85,3.42,5.77,5.45,8.77,6.09s5.99-.53,8.98-3.53,5.84-8.41,8.55-16.25l10.48.86c-3.42,8.27-8.02,14.11-13.79,17.53-5.77,3.42-13.36,5.06-22.77,4.92-6.7,0-12.94-1.43-18.71-4.28s-10.83-6.84-15.18-11.97c-4.35-5.13-7.8-11.29-10.37-18.49-2.57-7.2-3.99-15.29-4.28-24.27-.29-7.98.43-15.29,2.14-21.91,1.71-6.63,4.38-12.33,8.02-17.1,3.63-4.77,8.23-8.52,13.79-11.22,5.56-2.71,12.04-4.13,19.46-4.28,5.84,0,11.15,1.04,15.93,3.1,4.77,2.07,9.05,4.99,12.83,8.77,3.78,3.78,7.06,8.34,9.83,13.68,2.78,5.35,5.02,11.22,6.74,17.64ZM628.48,116.08c2.57-.57,5.7-1.28,9.41-2.14,3.71-.86,7.52-1.74,11.44-2.67,3.92-.93,7.73-1.78,11.44-2.57,3.71-.78,6.84-1.53,9.41-2.25-3.42-9.98-7.02-18.03-10.8-24.16-3.78-6.13-7.48-10.4-11.12-12.83-3.63-2.42-6.99-3.13-10.05-2.14-3.07,1-5.56,3.49-7.48,7.48-1.92,3.99-3.17,9.48-3.74,16.46-.57,6.99-.07,15.25,1.5,24.8Z"/>
  <path class="st0" d="M749.07,161.83c-1.57,2.85-3.49,5.42-5.77,7.7-2,2-4.49,3.74-7.48,5.24-2.99,1.5-6.56,2.25-10.69,2.25-7.27,0-13.08-1.57-17.42-4.7-4.35-3.13-7.52-6.98-9.51-11.55-2-4.56-2.92-9.41-2.78-14.54.14-5.13,1.07-9.62,2.78-13.47,1.85-3.99,4.38-7.55,7.59-10.69,3.21-3.13,6.81-5.91,10.8-8.34,3.99-2.42,8.12-4.6,12.4-6.52,4.28-1.92,8.48-3.81,12.61-5.67,4.7-2.28,8.23-4.67,10.58-7.16,2.35-2.49,4.03-4.88,5.02-7.16,1-2.28,1.46-4.35,1.39-6.2-.07-1.85-.18-3.21-.32-4.06-.29-1.42-.82-2.81-1.6-4.17-.79-1.35-1.92-2.53-3.42-3.53-1.5-1-3.35-1.74-5.56-2.24-2.21-.5-4.88-.53-8.02-.11-3.71.43-7.16,1.5-10.37,3.21s-6.13,3.78-8.77,6.2c-2.64,2.43-5.06,4.99-7.27,7.7-2.21,2.71-4.24,5.27-6.09,7.7l-4.49-23.73c3.56-1,7.48-1.78,11.76-2.35,3.56-.57,7.7-1.07,12.4-1.5,4.7-.43,9.55-.71,14.54-.86,9.83-.14,17.82.64,23.95,2.35,6.13,1.71,9.62,4.92,10.48,9.62.57,3.56-.21,6.77-2.35,9.62-2.14,2.85-4.92,5.45-8.34,7.8-3.42,2.35-7.13,4.49-11.12,6.41-3.99,1.92-7.48,3.74-10.48,5.45-7.56,4.28-13.01,9.27-16.36,14.97-3.35,5.7-4.67,13.33-3.96,22.88.28,4.85,1.1,9.12,2.46,12.83,1.35,3.71,3.13,6.45,5.35,8.23,2.21,1.78,4.81,2.39,7.8,1.82,2.99-.57,6.2-2.78,9.62-6.63,2.14-1.85,4.13-4.45,5.99-7.8,1.85-3.35,3.56-7.06,5.13-11.12,1.57-4.06,3.1-8.23,4.6-12.51,1.5-4.28,2.92-8.3,4.28-12.08,1.35-3.78,2.74-7.02,4.17-9.73,1.42-2.71,2.85-4.56,4.28-5.56v21.81c0,6.84-.04,14.68-.11,23.52-.07,8.84-.11,18.39-.11,28.65h-27.58v-11.97Z"/>
</svg>